<svg width="537" height="353" viewBox="0 0 537 353" fill="none" xmlns="http://www.w3.org/2000/svg">
<path d="M490.853 193.057C500.733 187.677 508.578 179.986 514.107 170.3C516.754 165.672 519.416 157.31 520.138 151.416C521.02 144.511 520.229 134.732 518.287 127.445L517.326 124.014L513.826 127.34C511.887 129.201 503.658 137.029 495.517 144.739L480.745 158.797L472.547 156.597L464.374 154.345L457.052 146.196L449.691 138.061L448.358 133.462C445.944 125.214 446.096 124.423 450.222 123.345L452.806 122.686L470.312 107.048C479.946 98.4165 487.801 91.2422 487.746 91.0883C487.568 90.5879 479.611 88.8223 475.715 88.4741C464.336 87.4491 453.27 89.1315 439.567 94.0067C435.564 95.431 430.079 97.6861 427.456 98.9664C424.794 100.26 421.736 101.782 420.584 102.322L418.549 103.306L412.245 96.3127C408.743 92.4418 405.373 88.6975 404.739 88.0125L403.589 86.7305L402.107 91.4637C394.033 117.276 380.748 135.879 360.821 149.343C357.048 151.899 348.613 156.591 344.657 158.389L341.442 159.837L340.388 158.824C339.098 157.635 337.76 157.287 335.35 157.581C334.099 157.723 321.705 162.132 297.423 171.032C277.592 178.305 212.935 201.699 153.742 223.02C81.5907 248.994 45.1205 262.273 43.0994 263.296C36.9727 266.43 34.4535 270.318 32.9977 278.902C31.6359 287.018 28.8079 307.711 28.7784 309.456C28.7507 316.447 35.8816 321.499 44.3115 320.451C47.7664 320.045 80.5712 310.846 104.756 303.498C111.653 301.435 119.205 299.138 121.594 298.418C152.703 289.084 194.789 274.891 240.472 258.377C278.51 244.627 288.102 240.997 310.403 231.892C331.5 223.302 345.998 217.493 355.77 213.756C368.337 208.981 370.705 207.835 371.575 206.138C372.11 205.081 372.088 204.655 371.357 202.964L370.515 200.965L372.709 200.184C373.941 199.746 376.885 199.002 379.304 198.488C394.862 195.294 414.061 195.749 439.459 199.981C451.686 202.049 459.634 202.083 469.832 200.276C475.78 199.2 485.983 195.7 490.853 193.057ZM409.337 181.862C407.955 181.27 387.001 157.72 386.426 156.104C385.933 154.718 386.655 153.334 388.965 151.297L391.048 149.472L391.657 150.21C392.014 150.603 393.112 151.86 394.155 152.963C395.159 154.08 396.046 155.109 396.073 155.186C396.114 155.302 395.459 156.142 394.625 157.089C392.969 158.893 392.74 159.711 393.497 160.743C394.32 161.837 395.887 161.367 397.428 159.604L398.818 158.026L400.218 159.522C401.035 160.359 401.529 161.137 401.364 161.283C401.185 161.389 400.429 162.309 399.647 163.281C398.185 165.145 398.195 166.269 399.643 166.925C400.7 167.46 400.917 167.339 402.728 165.481L404.233 163.861L405.753 165.575C406.612 166.527 407.381 167.468 407.449 167.66C407.531 167.891 406.928 168.756 406.081 169.665C404.551 171.336 404.373 172.787 405.642 173.55C406.557 174.048 407.582 173.64 409.049 172.034C409.783 171.296 410.405 170.728 410.471 170.791C411.375 171.38 416.498 177.493 416.336 177.767C416.013 178.446 412.228 181.701 411.395 182.04C410.947 182.243 410.001 182.146 409.337 181.862ZM49.0715 306.529C48.0604 306.368 46.6788 305.776 45.9952 305.195C43.6946 303.238 43.5754 301.806 44.6784 291.744C45.9865 280.308 46.3696 279.434 50.8944 278.258C53.5555 277.571 56.5626 279.32 57.653 282.141C58.1708 283.474 58.0805 285.415 57.2198 292.746C56.6477 297.719 55.9387 302.308 55.6548 302.972C54.4946 305.683 51.9509 307.065 49.0715 306.529Z" fill="#4E4E4E"/>
<g filter="url(#filter0_d)">
<path d="M454.782 166.164C454.594 166.258 454.289 166.469 454.125 166.657C453.961 166.845 452.332 169.791 450.504 173.218C448.676 176.634 447.012 179.709 446.801 180.049C446.179 181.035 446.226 181.023 442.957 181.152L440.062 181.281L439.441 180.976C438.82 180.671 438.749 180.577 434.566 174.533C432.222 171.164 430.194 168.242 430.042 168.042C429.702 167.584 429.104 167.291 428.495 167.291C427.991 167.291 414.736 171.704 414.279 172.021C413.599 172.502 413.459 173.066 413.588 174.779C413.869 178.253 414.42 185.248 414.537 186.856L414.678 188.652L414.338 189.321C414.01 189.967 413.892 190.072 411.595 191.668C410.271 192.584 409.005 193.394 408.783 193.464C407.822 193.746 407.705 193.711 400.157 190.577C392.411 187.361 392.633 187.443 391.719 187.854C391.274 188.065 382.566 198.91 382.391 199.474C382.297 199.814 382.297 200.037 382.391 200.377C382.484 200.671 384.172 202.995 387.102 206.856C391.063 212.091 391.684 212.971 391.801 213.476C391.965 214.238 391.965 214.238 390.442 217.877C389.094 221.128 388.789 221.586 387.875 221.914C387.606 222.008 384.078 222.689 380.012 223.417C372.277 224.802 372.242 224.813 371.726 225.518C371.117 226.339 369.605 240.4 370.097 240.693C370.167 240.74 373.531 241.984 377.562 243.463C381.594 244.942 385.063 246.257 385.262 246.374C386.035 246.82 386.211 247.325 386.914 251.221C387.278 253.205 387.571 255.071 387.571 255.388C387.571 255.752 387.465 256.151 387.301 256.456C387.125 256.796 385.344 258.533 381.535 262.078C378.5 264.895 375.921 267.371 375.793 267.559C375.64 267.805 375.57 268.111 375.582 268.51C375.582 269.05 375.875 269.648 378.57 274.894C380.223 278.075 381.711 280.833 381.887 281.021C382.051 281.198 382.414 281.409 382.684 281.479C383.141 281.608 383.703 281.502 390.501 279.965C398.165 278.227 398.435 278.192 399.29 278.592C399.747 278.814 405.197 284.448 405.525 285.035C405.97 285.856 405.947 286.092 404.751 290.762C401.997 301.525 402.056 301.291 402.208 301.795C402.278 302.054 402.466 302.394 402.607 302.558C402.747 302.723 405.443 304.307 408.595 306.08C413.787 309.002 414.385 309.307 414.865 309.307C415.182 309.307 415.557 309.213 415.756 309.096C415.955 308.967 418.451 306.49 421.323 303.568C424.194 300.645 426.725 298.157 426.971 298.04C427.827 297.581 428.061 297.605 432.351 298.568C434.566 299.06 436.511 299.542 436.663 299.647C437.472 300.176 437.519 300.281 440.015 307.793C442.371 314.87 442.441 315.057 442.886 315.457C443.144 315.691 443.531 315.903 443.789 315.95C444.855 316.149 451.5 315.726 455.743 315.187C457.665 314.94 458.075 314.741 458.403 313.861C458.508 313.579 459.282 310.081 460.114 306.091C461.122 301.326 461.72 298.697 461.86 298.461C462.317 297.735 462.657 297.558 466.231 296.197C470.087 294.718 470.579 294.612 471.435 295.07C471.646 295.188 474.341 297.312 477.412 299.801C480.494 302.288 483.166 304.412 483.365 304.53C483.623 304.683 483.893 304.73 484.338 304.695C484.935 304.66 485.064 304.565 488.428 302.019C495.261 296.842 495.906 296.337 496.128 296.021C496.257 295.857 496.385 295.457 496.409 295.141C496.467 294.624 496.233 293.943 493.748 287.418C492.248 283.474 490.995 280.07 490.972 279.848C490.855 279.037 491.124 278.533 492.998 275.951C494.007 274.578 494.944 273.322 495.084 273.181C495.495 272.723 496.198 272.418 496.855 272.43C497.171 272.43 500.675 272.782 504.625 273.216L511.797 273.991L512.3 273.768C512.57 273.639 512.886 273.439 513.003 273.31C513.167 273.122 517.269 262.113 517.949 260.036C518.208 259.273 518.043 258.627 517.445 258.017C517.211 257.77 514.305 255.576 510.989 253.134C505.034 248.756 504.964 248.698 504.672 248.052L504.378 247.407L504.518 244.883C504.707 241.585 504.73 241.433 505.163 240.799C505.515 240.294 505.784 240.142 512.347 236.844C516.11 234.954 519.262 233.334 519.367 233.252C519.626 233.029 520 232.255 520 231.938C520 231.445 516.965 217.654 516.778 217.29C516.672 217.09 516.402 216.809 516.157 216.644C515.664 216.328 516.168 216.363 504.284 215.6C499.726 215.307 499.644 215.283 498.952 214.626C498.448 214.145 496.339 210.166 496.257 209.532C496.21 209.215 496.257 208.828 496.35 208.546C496.444 208.288 498.249 205.154 500.359 201.586C504.039 195.389 504.202 195.084 504.202 194.521C504.191 194.204 504.121 193.816 504.039 193.652C503.886 193.359 494.077 183.277 493.514 182.842C493.339 182.702 492.987 182.596 492.577 182.572L491.909 182.526L485.299 186.199C481.666 188.218 478.478 189.943 478.22 190.037C477.412 190.319 476.884 190.143 474.705 188.922C472.501 187.69 472.267 187.514 471.927 186.845C471.622 186.258 471.634 186.41 471.353 178.03C471.118 171.106 471.107 170.859 470.849 170.343C470.415 169.462 471.271 169.721 459.317 166.869C457.301 166.399 455.532 166 455.391 166C455.25 166.012 454.981 166.082 454.782 166.164ZM450.27 197.267C453.492 197.689 456.164 198.288 458.942 199.215C473.697 204.098 484.994 216.82 488.054 231.985C488.722 235.306 488.874 236.902 488.874 240.764C488.885 244.402 488.827 245.294 488.346 248.217C486.096 261.937 477.154 274.002 464.626 280.199C459.88 282.546 455.778 283.779 450.035 284.565C448.242 284.812 441.703 284.765 439.722 284.507C429.479 283.11 420.549 278.65 413.588 271.444C403.638 261.139 399.384 246.937 401.985 232.712C403.697 223.358 408.771 214.426 416.002 208.03C423.139 201.727 431.847 197.983 441.421 197.114C443.191 196.95 448.547 197.044 450.27 197.267Z" fill="#FECE0A"/>
<path d="M454.782 166.164C454.594 166.258 454.289 166.469 454.125 166.657C453.961 166.845 452.332 169.791 450.504 173.218C448.676 176.634 447.012 179.709 446.801 180.049C446.179 181.035 446.226 181.023 442.957 181.152L440.062 181.281L439.441 180.976C438.82 180.671 438.749 180.577 434.566 174.533C432.222 171.164 430.194 168.242 430.042 168.042C429.702 167.584 429.104 167.291 428.495 167.291C427.991 167.291 414.736 171.704 414.279 172.021C413.599 172.502 413.459 173.066 413.588 174.779C413.869 178.253 414.42 185.248 414.537 186.856L414.678 188.652L414.338 189.321C414.01 189.967 413.892 190.072 411.595 191.668C410.271 192.584 409.005 193.394 408.783 193.464C407.822 193.746 407.705 193.711 400.157 190.577C392.411 187.361 392.633 187.443 391.719 187.854C391.274 188.065 382.566 198.91 382.391 199.474C382.297 199.814 382.297 200.037 382.391 200.377C382.484 200.671 384.172 202.995 387.102 206.856C391.063 212.091 391.684 212.971 391.801 213.476C391.965 214.238 391.965 214.238 390.442 217.877C389.094 221.128 388.789 221.586 387.875 221.914C387.606 222.008 384.078 222.689 380.012 223.417C372.277 224.802 372.242 224.813 371.726 225.518C371.117 226.339 369.605 240.4 370.097 240.693C370.167 240.74 373.531 241.984 377.562 243.463C381.594 244.942 385.063 246.257 385.262 246.374C386.035 246.82 386.211 247.325 386.914 251.221C387.278 253.205 387.571 255.071 387.571 255.388C387.571 255.752 387.465 256.151 387.301 256.456C387.125 256.796 385.344 258.533 381.535 262.078C378.5 264.895 375.921 267.371 375.793 267.559C375.64 267.805 375.57 268.111 375.582 268.51C375.582 269.05 375.875 269.648 378.57 274.894C380.223 278.075 381.711 280.833 381.887 281.021C382.051 281.198 382.414 281.409 382.684 281.479C383.141 281.608 383.703 281.502 390.501 279.965C398.165 278.227 398.435 278.192 399.29 278.592C399.747 278.814 405.197 284.448 405.525 285.035C405.97 285.856 405.947 286.092 404.751 290.762C401.997 301.525 402.056 301.291 402.208 301.795C402.278 302.054 402.466 302.394 402.607 302.558C402.747 302.723 405.443 304.307 408.595 306.08C413.787 309.002 414.385 309.307 414.865 309.307C415.182 309.307 415.557 309.213 415.756 309.096C415.955 308.967 418.451 306.49 421.323 303.568C424.194 300.645 426.725 298.157 426.971 298.04C427.827 297.581 428.061 297.605 432.351 298.568C434.566 299.06 436.511 299.542 436.663 299.647C437.472 300.176 437.519 300.281 440.015 307.793C442.371 314.87 442.441 315.057 442.886 315.457C443.144 315.691 443.531 315.903 443.789 315.95C444.855 316.149 451.5 315.726 455.743 315.187C457.665 314.94 458.075 314.741 458.403 313.861C458.508 313.579 459.282 310.081 460.114 306.091C461.122 301.326 461.72 298.697 461.86 298.461C462.317 297.735 462.657 297.558 466.231 296.197C470.087 294.718 470.579 294.612 471.435 295.07C471.646 295.188 474.341 297.312 477.412 299.801C480.494 302.288 483.166 304.412 483.365 304.53C483.623 304.683 483.893 304.73 484.338 304.695C484.935 304.66 485.064 304.565 488.428 302.019C495.261 296.842 495.906 296.337 496.128 296.021C496.257 295.857 496.385 295.457 496.409 295.141C496.467 294.624 496.233 293.943 493.748 287.418C492.248 283.474 490.995 280.07 490.972 279.848C490.855 279.037 491.124 278.533 492.998 275.951C494.007 274.578 494.944 273.322 495.084 273.181C495.495 272.723 496.198 272.418 496.855 272.43C497.171 272.43 500.675 272.782 504.625 273.216L511.797 273.991L512.3 273.768C512.57 273.639 512.886 273.439 513.003 273.31C513.167 273.122 517.269 262.113 517.949 260.036C518.208 259.273 518.043 258.627 517.445 258.017C517.211 257.77 514.305 255.576 510.989 253.134C505.034 248.756 504.964 248.698 504.672 248.052L504.378 247.407L504.518 244.883C504.707 241.585 504.73 241.433 505.163 240.799C505.515 240.294 505.784 240.142 512.347 236.844C516.11 234.954 519.262 233.334 519.367 233.252C519.626 233.029 520 232.255 520 231.938C520 231.445 516.965 217.654 516.778 217.29C516.672 217.09 516.402 216.809 516.157 216.644C515.664 216.328 516.168 216.363 504.284 215.6C499.726 215.307 499.644 215.283 498.952 214.626C498.448 214.145 496.339 210.166 496.257 209.532C496.21 209.215 496.257 208.828 496.35 208.546C496.444 208.288 498.249 205.154 500.359 201.586C504.039 195.389 504.202 195.084 504.202 194.521C504.191 194.204 504.121 193.816 504.039 193.652C503.886 193.359 494.077 183.277 493.514 182.842C493.339 182.702 492.987 182.596 492.577 182.572L491.909 182.526L485.299 186.199C481.666 188.218 478.478 189.943 478.22 190.037C477.412 190.319 476.884 190.143 474.705 188.922C472.501 187.69 472.267 187.514 471.927 186.845C471.622 186.258 471.634 186.41 471.353 178.03C471.118 171.106 471.107 170.859 470.849 170.343C470.415 169.462 471.271 169.721 459.317 166.869C457.301 166.399 455.532 166 455.391 166C455.25 166.012 454.981 166.082 454.782 166.164ZM450.27 197.267C453.492 197.689 456.164 198.288 458.942 199.215C473.697 204.098 484.994 216.82 488.054 231.985C488.722 235.306 488.874 236.902 488.874 240.764C488.885 244.402 488.827 245.294 488.346 248.217C486.096 261.937 477.154 274.002 464.626 280.199C459.88 282.546 455.778 283.779 450.035 284.565C448.242 284.812 441.703 284.765 439.722 284.507C429.479 283.11 420.549 278.65 413.588 271.444C403.638 261.139 399.384 246.937 401.985 232.712C403.697 223.358 408.771 214.426 416.002 208.03C423.139 201.727 431.847 197.983 441.421 197.114C443.191 196.95 448.547 197.044 450.27 197.267Z" stroke="white" stroke-width="5" style="mix-blend-mode:overlay"/>
</g>
<circle cx="445.417" cy="240.583" r="56.25" fill="white"/>
<path d="M491.602 236.417L479.772 224.587V197.484H465.547V210.362L444.583 189.398L397.565 236.417L403.405 242.257L409.394 236.267V282.836H479.772V236.267L485.762 242.257L491.602 236.417ZM401.758 236.417L444.583 193.591L468.542 217.549V200.479H476.777V225.785L487.409 236.417L485.762 238.064L444.583 196.885L403.405 238.064L401.758 236.417ZM476.777 233.422V279.841H412.389V233.422H412.24L444.583 201.078L476.927 233.422H476.777Z" fill="#FECB37"/>
<path d="M467.194 251.391C467.194 249.968 466.595 248.695 465.697 247.722C466.595 246.824 467.194 245.626 467.194 244.278C467.194 241.583 465.023 239.411 462.327 239.411H453.343C453.118 239.411 452.969 239.262 452.969 239.037V228.93C452.969 225.186 449.974 222.191 446.23 222.191C444.808 222.191 443.61 223.389 443.61 224.812V231.7C442.187 235.743 439.717 239.262 436.423 241.882V241.658H421.973V270.108H436.497V268.386C438.743 269.509 441.139 270.108 443.685 270.108H458.285C460.755 270.108 462.777 268.087 462.777 265.616C462.777 264.942 462.627 264.343 462.402 263.744C464.349 262.995 465.771 261.049 465.771 258.878C465.771 257.755 465.397 256.706 464.798 255.808C466.221 254.91 467.194 253.262 467.194 251.391ZM433.428 267.113H424.967V244.652H433.503V267.113H433.428ZM460.456 261.124H458.21V264.118C459.033 264.118 459.707 264.792 459.707 265.616C459.707 266.439 459.033 267.113 458.21 267.113H443.61C441.064 267.113 438.594 266.365 436.423 264.942V245.701L438.219 244.278C442.113 241.208 444.958 237.09 446.53 232.374L446.605 232.149V225.186C448.477 225.411 449.974 226.983 449.974 228.93V239.037C449.974 240.909 451.471 242.406 453.343 242.406H462.327C463.376 242.406 464.199 243.23 464.199 244.278C464.199 245.326 463.376 246.15 462.327 246.15H461.953V249.145C463.226 249.145 464.199 250.118 464.199 251.391C464.199 252.663 463.226 253.637 461.953 253.637H461.204V253.712C460.98 253.712 460.68 253.637 460.456 253.637V256.632C461.729 256.632 462.702 257.605 462.702 258.878C462.702 260.15 461.729 261.124 460.456 261.124Z" fill="#FECB37"/>
<g filter="url(#filter1_d)">
<path fill-rule="evenodd" clip-rule="evenodd" d="M276.889 298.306C277.612 299.448 282.987 304.824 283.954 312.819C283.352 313.823 262.794 312.623 261.389 311.249C261.656 308.176 263.765 304.538 261.541 302.607C258.556 300.242 260.163 295.952 258.786 290.423C255.824 278.524 244.546 262.949 240.885 255.537C239.088 251.93 239.566 247.482 238.153 243.731C233.563 231.607 222.896 217.536 208.247 214.019C206.859 213.745 203.333 214.022 201.65 214.576C203.333 219.982 205.479 230.658 205.479 230.658C212.219 235.649 222.634 238.976 218.523 241.93C215.743 242.441 205.785 240.777 205.785 240.777C205.171 243.413 198.126 243.967 195.982 239.53C192.918 239.53 189.094 239.861 189.094 239.861L193.368 249.323C193.368 249.323 215.632 296.522 216.841 308.323C208.714 298.401 188.146 250.43 188.146 250.43L183.751 240.699C181.698 240.63 180.34 241.187 177.579 240.565C174.026 237.66 178.977 230.129 175.546 222.539L174.521 220.273C172.981 220.767 168.156 220.791 168.156 222.391C163.049 242.857 151.407 246.045 148.496 249.235C148.803 254.363 156.316 263.362 174.619 274.015C178.294 276.152 188.298 282.224 188.298 282.224C192.957 285.946 200.73 292.21 202.149 299.61C198.892 299.833 186.331 299.419 179.637 297.838C179.287 295.397 179.131 293.735 179.437 291.101C176.681 284.724 172.397 288.475 166.264 285.279C161.232 282.653 161.67 278.902 156.4 273.969C147.891 266.003 136.397 258.383 128.737 253.809C129.963 250.065 131.6 245.216 131.536 240.07C131.438 236.085 129.706 233.062 128.066 229.835C122.457 238.281 103.63 244.692 96.7227 249.372C83.4549 258.269 76.8278 286.673 83.7035 300.568C84.9109 303.032 88.9119 308.014 89.5071 315.438C87.7451 316.625 75.1639 315.6 74.2051 315.36C72.8117 314.844 64.7083 313.56 64.7083 313.56C65.1987 313.402 63.1627 305.58 68.2307 295.675L60.266 293.456C64.798 285.775 70.544 271.374 72.5191 259.077C74.944 243.991 74.2761 233.367 75.6915 230.314C77.3115 226.814 86.8302 226.466 88.7563 219.982C90.777 213.194 84.3038 206.534 84.2345 192.59C84.2074 186.819 84.3157 181.305 86.306 175.619C84.3157 170.63 79.2054 170.815 77.2455 171.427C68.6704 173.985 72.3602 187.11 72.4954 193.565C72.8269 209.309 66.6986 220.814 61.2485 228.906V216.811C59.5016 223.309 49.9406 237.279 49.9406 237.279L48.9142 229.835C45.2548 235.508 39.2804 241.331 36.218 247.017C34.3799 240.222 34.0738 229.548 37.1379 219.29C37.1379 219.29 34.6859 220.814 33 221.368C34.992 215.824 36.7371 207.499 37.1227 201.985C38.2912 185.327 33.9436 171.34 45.4747 158.72C57.579 145.476 75.5832 145.122 93.114 164.709C101.473 157.738 113.42 152.331 126.009 149.825C126.009 149.825 116.758 136.684 116.758 134.008C125.213 131.535 134.234 131.218 134.234 131.218L132.985 128.327C129.74 123.502 116.888 118.369 110.269 121.274C108.057 124.189 105.433 129.125 102.085 130.566C100.399 129.041 97.9469 128.208 93.9814 127.789C93.9814 127.789 92.7385 129.872 90.5943 131.535C87.2258 127.377 81.3393 129.832 77.7273 128.07L74.9709 132.368C72.2298 130.418 62.87 127.239 53.0248 124.706C54.4453 121 57.6633 117.258 60.2658 114.346C60.2658 113.037 54.5992 108.522 49.0848 108.384L53.0248 98.6555C48.1665 96.7394 46.1729 90.2229 40.6584 90.3637C46.3284 85.0945 55.9267 76.8883 59.192 73.5351C64.402 68.1817 76.9122 60.0858 83.1926 58.0058C84.2343 47.8024 83.1927 45.2589 83.0185 36.563C82.9441 32.6084 84.7687 32.0376 88.0678 30.2669L83.5478 18.9111C82.2474 16.0278 87.5724 15.1524 88.3587 16.8909L93.0682 28.1304C93.0682 28.1304 97.4885 27.5626 98.9428 28.1855C101.699 32.6926 103.999 35.7427 104.917 39.6239C105.299 40.6615 104.229 43.2969 102.005 46.4159L105.406 54.1415C118.425 56.3591 132.565 58.7558 147.118 65.5463C148.273 62.7563 149.653 60.9489 149.653 58.6517L140.753 57.1687L136.291 58.6502L133.078 52.9815L126.009 46.5583C126.009 46.5583 133.631 39.8167 137.16 37.4063C139.646 35.7075 149.619 31.4438 149.619 31.4438C165.618 18.8866 191.8 39.1434 188.073 55.7454C186.533 62.5772 179.43 61.1799 173.906 63.4771C171.521 66.7093 168.513 69.9875 164.888 73.3101C168.41 75.8062 173.292 80.8214 174.843 84.1241C176.965 88.648 178.436 98.6571 178.436 98.6571C180.685 98.452 185.107 97.295 187.557 95.7692C187.557 95.7692 192.827 97.7251 191.8 97.7251C192.794 95.6621 196.136 91.7487 198.586 89.2541C195.728 88.642 189.071 88.4216 190.77 88.4216C192.766 85.0944 199.949 82.9304 201.802 80.797L199.044 79.6874C202.415 78.1631 207.471 75.5277 207.471 75.5277C205.736 75.0334 203.641 74.4197 202.078 72.6077C207.283 70.3977 212.424 65.1637 218.523 65.1637C217.016 63.9118 214.669 63.7465 213.389 62.3722C220.951 59.3098 226.491 58.6517 233.945 58.6517C234.65 57.0509 229.987 52.3785 228.967 50.0446C233.969 48.3565 244.692 48.0795 249.236 48.8248C253.184 49.4722 256.98 50.5618 260.073 52.7549C263.841 55.4286 266.903 63.1909 271.919 63.4419C274.044 63.5506 277.122 62.3722 277.122 62.3722C275.996 64.8729 271.981 67.9842 271.981 70.7436C275.964 72.0812 292.542 74.6125 292.542 77.2586C286.92 78.4202 283.512 80.9776 280.205 80.9776L286.051 92.0257C284.825 92.3043 283.599 92.8583 283.599 92.8583C285.893 100.09 291.91 115.327 295.089 128.07C295.363 131.973 294.934 133.617 292.204 136.001C290.258 137.697 264.784 150.116 264.784 141.452C261.475 143.981 258.617 148.024 258.617 150.756C263.18 160.321 269.604 166.893 269.795 177.734C269.862 182.503 269.2 186.018 267.869 190.761C279.21 191.69 306.049 178.496 311.632 188.792C315.615 196.138 309.987 202.057 306.375 213.213C302.748 224.419 300.083 234.824 294.934 242.303C291.352 245.636 288.193 247.155 284.213 248.957C281.319 249.449 276.534 249.046 270.133 248.258C271.173 241.42 275.634 232.736 277.778 228.577C277.778 228.577 285.131 231.768 286.663 230.24C286.663 224.836 288.958 223.156 292.483 222.755C293.403 217.904 296.332 209.022 295.642 205.634C294.184 198.459 265.065 211.11 249.594 214.299C250.514 224.418 254.451 236.781 259.62 246.065C261.847 250.065 259.622 257.158 261.389 262.681L269.506 285.276C271.598 289.87 276.289 298.442 276.889 298.306L276.889 298.306ZM245.153 113.098C245.537 124.553 247.604 129.871 248.98 133.475C248.98 133.475 260.623 137.358 265.812 138.662C266.874 137.207 268.511 135.869 269.925 135.869C264.759 130.289 267.916 127.931 265.523 125.99C259.525 121.122 250.336 121.83 245.153 113.098V113.098ZM176.222 112.404C175.676 114.933 173.924 121.83 172.546 127.516L183.421 122.109C184.339 119.198 185.107 115.453 185.107 115.453C182.381 115.908 179.418 114.893 176.222 112.404V112.404Z" fill="#FECB37"/>
<path fill-rule="evenodd" clip-rule="evenodd" d="M276.889 298.306C277.612 299.448 282.987 304.824 283.954 312.819C283.352 313.823 262.794 312.623 261.389 311.249C261.656 308.176 263.765 304.538 261.541 302.607C258.556 300.242 260.163 295.952 258.786 290.423C255.824 278.524 244.546 262.949 240.885 255.537C239.088 251.93 239.566 247.482 238.153 243.731C233.563 231.607 222.896 217.536 208.247 214.019C206.859 213.745 203.333 214.022 201.65 214.576C203.333 219.982 205.479 230.658 205.479 230.658C212.219 235.649 222.634 238.976 218.523 241.93C215.743 242.441 205.785 240.777 205.785 240.777C205.171 243.413 198.126 243.967 195.982 239.53C192.918 239.53 189.094 239.861 189.094 239.861L193.368 249.323C193.368 249.323 215.632 296.522 216.841 308.323C208.714 298.401 188.146 250.43 188.146 250.43L183.751 240.699C181.698 240.63 180.34 241.187 177.579 240.565C174.026 237.66 178.977 230.129 175.546 222.539L174.521 220.273C172.981 220.767 168.156 220.791 168.156 222.391C163.049 242.857 151.407 246.045 148.496 249.235C148.803 254.363 156.316 263.362 174.619 274.015C178.294 276.152 188.298 282.224 188.298 282.224C192.957 285.946 200.73 292.21 202.149 299.61C198.892 299.833 186.331 299.419 179.637 297.838C179.287 295.397 179.131 293.735 179.437 291.101C176.681 284.724 172.397 288.475 166.264 285.279C161.232 282.653 161.67 278.902 156.4 273.969C147.891 266.003 136.397 258.383 128.737 253.809C129.963 250.065 131.6 245.216 131.536 240.07C131.438 236.085 129.706 233.062 128.066 229.835C122.457 238.281 103.63 244.692 96.7227 249.372C83.4549 258.269 76.8278 286.673 83.7035 300.568C84.9109 303.032 88.9119 308.014 89.5071 315.438C87.7451 316.625 75.1639 315.6 74.2051 315.36C72.8117 314.844 64.7083 313.56 64.7083 313.56C65.1987 313.402 63.1627 305.58 68.2307 295.675L60.266 293.456C64.798 285.775 70.544 271.374 72.5191 259.077C74.944 243.991 74.2761 233.367 75.6915 230.314C77.3115 226.814 86.8302 226.466 88.7563 219.982C90.777 213.194 84.3038 206.534 84.2345 192.59C84.2074 186.819 84.3157 181.305 86.306 175.619C84.3157 170.63 79.2054 170.815 77.2455 171.427C68.6704 173.985 72.3602 187.11 72.4954 193.565C72.8269 209.309 66.6986 220.814 61.2485 228.906V216.811C59.5016 223.309 49.9406 237.279 49.9406 237.279L48.9142 229.835C45.2548 235.508 39.2804 241.331 36.218 247.017C34.3799 240.222 34.0738 229.548 37.1379 219.29C37.1379 219.29 34.6859 220.814 33 221.368C34.992 215.824 36.7371 207.499 37.1227 201.985C38.2912 185.327 33.9436 171.34 45.4747 158.72C57.579 145.476 75.5832 145.122 93.114 164.709C101.473 157.738 113.42 152.331 126.009 149.825C126.009 149.825 116.758 136.684 116.758 134.008C125.213 131.535 134.234 131.218 134.234 131.218L132.985 128.327C129.74 123.502 116.888 118.369 110.269 121.274C108.057 124.189 105.433 129.125 102.085 130.566C100.399 129.041 97.9469 128.208 93.9814 127.789C93.9814 127.789 92.7385 129.872 90.5943 131.535C87.2258 127.377 81.3393 129.832 77.7273 128.07L74.9709 132.368C72.2298 130.418 62.87 127.239 53.0248 124.706C54.4453 121 57.6633 117.258 60.2658 114.346C60.2658 113.037 54.5992 108.522 49.0848 108.384L53.0248 98.6555C48.1665 96.7394 46.1729 90.2229 40.6584 90.3637C46.3284 85.0945 55.9267 76.8883 59.192 73.5351C64.402 68.1817 76.9122 60.0858 83.1926 58.0058C84.2343 47.8024 83.1927 45.2589 83.0185 36.563C82.9441 32.6084 84.7687 32.0376 88.0678 30.2669L83.5478 18.9111C82.2474 16.0278 87.5724 15.1524 88.3587 16.8909L93.0682 28.1304C93.0682 28.1304 97.4885 27.5626 98.9428 28.1855C101.699 32.6926 103.999 35.7427 104.917 39.6239C105.299 40.6615 104.229 43.2969 102.005 46.4159L105.406 54.1415C118.425 56.3591 132.565 58.7558 147.118 65.5463C148.273 62.7563 149.653 60.9489 149.653 58.6517L140.753 57.1687L136.291 58.6502L133.078 52.9815L126.009 46.5583C126.009 46.5583 133.631 39.8167 137.16 37.4063C139.646 35.7075 149.619 31.4438 149.619 31.4438C165.618 18.8866 191.8 39.1434 188.073 55.7454C186.533 62.5772 179.43 61.1799 173.906 63.4771C171.521 66.7093 168.513 69.9875 164.888 73.3101C168.41 75.8062 173.292 80.8214 174.843 84.1241C176.965 88.648 178.436 98.6571 178.436 98.6571C180.685 98.452 185.107 97.295 187.557 95.7692C187.557 95.7692 192.827 97.7251 191.8 97.7251C192.794 95.6621 196.136 91.7487 198.586 89.2541C195.728 88.642 189.071 88.4216 190.77 88.4216C192.766 85.0944 199.949 82.9304 201.802 80.797L199.044 79.6874C202.415 78.1631 207.471 75.5277 207.471 75.5277C205.736 75.0334 203.641 74.4197 202.078 72.6077C207.283 70.3977 212.424 65.1637 218.523 65.1637C217.016 63.9118 214.669 63.7465 213.389 62.3722C220.951 59.3098 226.491 58.6517 233.945 58.6517C234.65 57.0509 229.987 52.3785 228.967 50.0446C233.969 48.3565 244.692 48.0795 249.236 48.8248C253.184 49.4722 256.98 50.5618 260.073 52.7549C263.841 55.4286 266.903 63.1909 271.919 63.4419C274.044 63.5506 277.122 62.3722 277.122 62.3722C275.996 64.8729 271.981 67.9842 271.981 70.7436C275.964 72.0812 292.542 74.6125 292.542 77.2586C286.92 78.4202 283.512 80.9776 280.205 80.9776L286.051 92.0257C284.825 92.3043 283.599 92.8583 283.599 92.8583C285.893 100.09 291.91 115.327 295.089 128.07C295.363 131.973 294.934 133.617 292.204 136.001C290.258 137.697 264.784 150.116 264.784 141.452C261.475 143.981 258.617 148.024 258.617 150.756C263.18 160.321 269.604 166.893 269.795 177.734C269.862 182.503 269.2 186.018 267.869 190.761C279.21 191.69 306.049 178.496 311.632 188.792C315.615 196.138 309.987 202.057 306.375 213.213C302.748 224.419 300.083 234.824 294.934 242.303C291.352 245.636 288.193 247.155 284.213 248.957C281.319 249.449 276.534 249.046 270.133 248.258C271.173 241.42 275.634 232.736 277.778 228.577C277.778 228.577 285.131 231.768 286.663 230.24C286.663 224.836 288.958 223.156 292.483 222.755C293.403 217.904 296.332 209.022 295.642 205.634C294.184 198.459 265.065 211.11 249.594 214.299C250.514 224.418 254.451 236.781 259.62 246.065C261.847 250.065 259.622 257.158 261.389 262.681L269.506 285.276C271.598 289.87 276.289 298.442 276.889 298.306L276.889 298.306ZM245.153 113.098C245.537 124.553 247.604 129.871 248.98 133.475C248.98 133.475 260.623 137.358 265.812 138.662C266.874 137.207 268.511 135.869 269.925 135.869C264.759 130.289 267.916 127.931 265.523 125.99C259.525 121.122 250.336 121.83 245.153 113.098V113.098ZM176.222 112.404C175.676 114.933 173.924 121.83 172.546 127.516L183.421 122.109C184.339 119.198 185.107 115.453 185.107 115.453C182.381 115.908 179.418 114.893 176.222 112.404V112.404Z" stroke="white" stroke-width="5"/>
</g>
<defs>
<filter id="filter0_d" x="363.5" y="163.5" width="163" height="164" filterUnits="userSpaceOnUse" color-interpolation-filters="sRGB">
<feFlood flood-opacity="0" result="BackgroundImageFix"/>
<feColorMatrix in="SourceAlpha" type="matrix" values="0 0 0 0 0 0 0 0 0 0 0 0 0 0 0 0 0 0 127 0"/>
<feOffset dy="5"/>
<feGaussianBlur stdDeviation="2"/>
<feColorMatrix type="matrix" values="0 0 0 0 0 0 0 0 0 0 0 0 0 0 0 0 0 0 0.25 0"/>
<feBlend mode="normal" in2="BackgroundImageFix" result="effect1_dropShadow"/>
<feBlend mode="normal" in="SourceGraphic" in2="effect1_dropShadow" result="shape"/>
</filter>
<filter id="filter1_d" x="11.916" y="0.5" width="320.584" height="339" filterUnits="userSpaceOnUse" color-interpolation-filters="sRGB">
<feFlood flood-opacity="0" result="BackgroundImageFix"/>
<feColorMatrix in="SourceAlpha" type="matrix" values="0 0 0 0 0 0 0 0 0 0 0 0 0 0 0 0 0 0 127 0"/>
<feOffset dy="4"/>
<feGaussianBlur stdDeviation="8.5"/>
<feColorMatrix type="matrix" values="0 0 0 0 0 0 0 0 0 0 0 0 0 0 0 0 0 0 0.43 0"/>
<feBlend mode="normal" in2="BackgroundImageFix" result="effect1_dropShadow"/>
<feBlend mode="normal" in="SourceGraphic" in2="effect1_dropShadow" result="shape"/>
</filter>
</defs>
</svg>
