<svg width="537" height="353" viewBox="0 0 537 353" fill="none" xmlns="http://www.w3.org/2000/svg">
<g filter="url(#filter0_d)">
<path d="M450.738 130.197C450.513 130.31 450.147 130.563 449.95 130.789C449.753 131.014 447.799 134.549 445.605 138.662C443.411 142.76 441.414 146.45 441.161 146.859C440.415 148.042 440.472 148.028 436.548 148.183L433.074 148.338L432.329 147.971C431.584 147.605 431.499 147.493 426.479 140.239C423.666 136.197 421.233 132.69 421.05 132.451C420.642 131.901 419.925 131.549 419.194 131.549C418.589 131.549 402.683 136.845 402.135 137.225C401.319 137.803 401.151 138.479 401.305 140.535C401.643 144.704 402.304 153.098 402.444 155.028L402.613 157.182L402.205 157.985C401.812 158.76 401.671 158.887 398.915 160.802C397.325 161.901 395.807 162.873 395.539 162.957C394.386 163.295 394.246 163.253 385.189 159.492C375.893 155.633 376.16 155.732 375.063 156.225C374.529 156.478 364.08 169.492 363.869 170.168C363.756 170.577 363.756 170.844 363.869 171.253C363.981 171.605 366.006 174.393 369.522 179.027C374.276 185.309 375.021 186.365 375.162 186.971C375.359 187.886 375.359 187.886 373.53 192.252C371.913 196.154 371.547 196.703 370.45 197.097C370.127 197.21 365.894 198.027 361.014 198.9C351.732 200.562 351.69 200.576 351.071 201.421C350.34 202.407 348.526 219.28 349.116 219.632C349.201 219.688 353.237 221.181 358.075 222.956C362.912 224.73 367.075 226.308 367.314 226.449C368.242 226.984 368.453 227.59 369.297 232.265C369.733 234.646 370.085 236.885 370.085 237.265C370.085 237.702 369.958 238.181 369.761 238.547C369.55 238.955 367.413 241.04 362.842 245.293C359.2 248.674 356.106 251.645 355.951 251.871C355.768 252.166 355.684 252.533 355.698 253.012C355.698 253.659 356.05 254.378 359.284 260.673C361.267 264.49 363.053 267.8 363.264 268.026C363.461 268.237 363.897 268.491 364.22 268.575C364.769 268.73 365.444 268.602 373.601 266.758C382.798 264.673 383.121 264.631 384.148 265.11C384.696 265.377 391.236 272.138 391.63 272.842C392.164 273.828 392.136 274.11 390.702 279.715C387.397 292.63 387.467 292.349 387.65 292.954C387.734 293.264 387.959 293.673 388.128 293.87C388.297 294.067 391.531 295.968 395.314 298.095C401.544 301.602 402.262 301.969 402.838 301.969C403.218 301.969 403.668 301.856 403.907 301.715C404.146 301.56 407.142 298.588 410.587 295.082C414.033 291.574 417.07 288.589 417.366 288.448C418.392 287.897 418.674 287.926 423.821 289.081C426.479 289.672 428.813 290.251 428.996 290.377C429.966 291.011 430.023 291.137 433.018 300.152C435.845 308.644 435.929 308.869 436.464 309.349C436.773 309.63 437.237 309.883 437.547 309.94C438.826 310.179 446.8 309.672 451.891 309.024C454.197 308.728 454.69 308.489 455.083 307.433C455.21 307.095 456.138 302.898 457.137 298.109C458.346 292.391 459.063 289.236 459.232 288.954C459.781 288.081 460.188 287.87 464.478 286.237C469.105 284.462 469.695 284.334 470.722 284.884C470.975 285.025 474.21 287.574 477.894 290.561C481.593 293.546 484.799 296.095 485.038 296.236C485.348 296.419 485.671 296.476 486.206 296.433C486.922 296.391 487.077 296.278 491.114 293.222C499.313 287.011 500.087 286.405 500.353 286.025C500.508 285.828 500.662 285.349 500.691 284.969C500.761 284.349 500.479 283.532 497.498 275.701C495.698 270.969 494.194 266.884 494.166 266.617C494.025 265.645 494.349 265.039 496.598 261.941C497.808 260.293 498.933 258.786 499.101 258.617C499.594 258.068 500.437 257.702 501.226 257.716C501.606 257.716 505.81 258.138 510.55 258.659L519.156 259.589L519.76 259.321C520.084 259.166 520.463 258.927 520.604 258.772C520.801 258.547 525.723 245.336 526.539 242.843C526.849 241.927 526.652 241.153 525.935 240.42C525.653 240.124 522.166 237.491 518.186 234.561C511.041 229.308 510.957 229.237 510.606 228.463L510.254 227.688L510.422 224.66C510.648 220.702 510.676 220.519 511.196 219.759C511.618 219.153 511.941 218.97 519.817 215.012C524.332 212.745 528.114 210.801 528.241 210.703C528.551 210.435 529 209.505 529 209.125C529 208.534 525.358 191.985 525.133 191.548C525.007 191.309 524.682 190.971 524.388 190.773C523.797 190.393 524.401 190.435 510.141 189.52C504.671 189.168 504.572 189.14 503.742 188.351C503.138 187.773 500.607 182.999 500.508 182.238C500.452 181.858 500.508 181.393 500.62 181.055C500.733 180.745 502.898 176.985 505.43 172.703C509.847 165.267 510.042 164.901 510.042 164.225C510.029 163.844 509.945 163.38 509.847 163.182C509.663 162.83 497.892 150.732 497.217 150.211C497.007 150.042 496.585 149.915 496.092 149.887L495.291 149.831L487.358 154.239C482.999 156.661 479.174 158.732 478.865 158.844C477.894 159.183 477.261 158.971 474.646 157.506C472.002 156.028 471.72 155.816 471.313 155.014C470.947 154.309 470.961 154.492 470.624 144.436C470.342 136.127 470.328 135.831 470.019 135.211C469.498 134.155 470.525 134.465 456.18 131.042C453.762 130.479 451.638 130 451.469 130C451.3 130.014 450.977 130.099 450.738 130.197ZM445.323 167.52C449.191 168.027 452.397 168.746 455.73 169.858C473.436 175.717 486.993 190.985 490.664 209.181C491.466 213.167 491.648 215.083 491.648 219.716C491.662 224.082 491.592 225.153 491.015 228.66C488.315 245.124 477.585 259.603 462.551 267.039C456.855 269.856 451.933 271.335 445.042 272.279C442.891 272.574 435.043 272.518 432.667 272.209C420.375 270.532 409.659 265.18 401.305 256.533C389.366 244.167 384.261 227.125 387.383 210.055C389.436 198.83 395.525 188.111 404.202 180.435C412.767 172.872 423.216 168.379 434.706 167.337C436.829 167.14 443.256 167.253 445.323 167.52Z" fill="#FECE0A"/>
<path d="M450.738 130.197C450.513 130.31 450.147 130.563 449.95 130.789C449.753 131.014 447.799 134.549 445.605 138.662C443.411 142.76 441.414 146.45 441.161 146.859C440.415 148.042 440.472 148.028 436.548 148.183L433.074 148.338L432.329 147.971C431.584 147.605 431.499 147.493 426.479 140.239C423.666 136.197 421.233 132.69 421.05 132.451C420.642 131.901 419.925 131.549 419.194 131.549C418.589 131.549 402.683 136.845 402.135 137.225C401.319 137.803 401.151 138.479 401.305 140.535C401.643 144.704 402.304 153.098 402.444 155.028L402.613 157.182L402.205 157.985C401.812 158.76 401.671 158.887 398.915 160.802C397.325 161.901 395.807 162.873 395.539 162.957C394.386 163.295 394.246 163.253 385.189 159.492C375.893 155.633 376.16 155.732 375.063 156.225C374.529 156.478 364.08 169.492 363.869 170.168C363.756 170.577 363.756 170.844 363.869 171.253C363.981 171.605 366.006 174.393 369.522 179.027C374.276 185.309 375.021 186.365 375.162 186.971C375.359 187.886 375.359 187.886 373.53 192.252C371.913 196.154 371.547 196.703 370.45 197.097C370.127 197.21 365.894 198.027 361.014 198.9C351.732 200.562 351.69 200.576 351.071 201.421C350.34 202.407 348.526 219.28 349.116 219.632C349.201 219.688 353.237 221.181 358.075 222.956C362.912 224.73 367.075 226.308 367.314 226.449C368.242 226.984 368.453 227.59 369.297 232.265C369.733 234.646 370.085 236.885 370.085 237.265C370.085 237.702 369.958 238.181 369.761 238.547C369.55 238.955 367.413 241.04 362.842 245.293C359.2 248.674 356.106 251.645 355.951 251.871C355.768 252.166 355.684 252.533 355.698 253.012C355.698 253.659 356.05 254.378 359.284 260.673C361.267 264.49 363.053 267.8 363.264 268.026C363.461 268.237 363.897 268.491 364.22 268.575C364.769 268.73 365.444 268.602 373.601 266.758C382.798 264.673 383.121 264.631 384.148 265.11C384.696 265.377 391.236 272.138 391.63 272.842C392.164 273.828 392.136 274.11 390.702 279.715C387.397 292.63 387.467 292.349 387.65 292.954C387.734 293.264 387.959 293.673 388.128 293.87C388.297 294.067 391.531 295.968 395.314 298.095C401.544 301.602 402.262 301.969 402.838 301.969C403.218 301.969 403.668 301.856 403.907 301.715C404.146 301.56 407.142 298.588 410.587 295.082C414.033 291.574 417.07 288.589 417.366 288.448C418.392 287.897 418.674 287.926 423.821 289.081C426.479 289.672 428.813 290.251 428.996 290.377C429.966 291.011 430.023 291.137 433.018 300.152C435.845 308.644 435.929 308.869 436.464 309.349C436.773 309.63 437.237 309.883 437.547 309.94C438.826 310.179 446.8 309.672 451.891 309.024C454.197 308.728 454.69 308.489 455.083 307.433C455.21 307.095 456.138 302.898 457.137 298.109C458.346 292.391 459.063 289.236 459.232 288.954C459.781 288.081 460.188 287.87 464.478 286.237C469.105 284.462 469.695 284.334 470.722 284.884C470.975 285.025 474.21 287.574 477.894 290.561C481.593 293.546 484.799 296.095 485.038 296.236C485.348 296.419 485.671 296.476 486.206 296.433C486.922 296.391 487.077 296.278 491.114 293.222C499.313 287.011 500.087 286.405 500.353 286.025C500.508 285.828 500.662 285.349 500.691 284.969C500.761 284.349 500.479 283.532 497.498 275.701C495.698 270.969 494.194 266.884 494.166 266.617C494.025 265.645 494.349 265.039 496.598 261.941C497.808 260.293 498.933 258.786 499.101 258.617C499.594 258.068 500.437 257.702 501.226 257.716C501.606 257.716 505.81 258.138 510.55 258.659L519.156 259.589L519.76 259.321C520.084 259.166 520.463 258.927 520.604 258.772C520.801 258.547 525.723 245.336 526.539 242.843C526.849 241.927 526.652 241.153 525.935 240.42C525.653 240.124 522.166 237.491 518.186 234.561C511.041 229.308 510.957 229.237 510.606 228.463L510.254 227.688L510.422 224.66C510.648 220.702 510.676 220.519 511.196 219.759C511.618 219.153 511.941 218.97 519.817 215.012C524.332 212.745 528.114 210.801 528.241 210.703C528.551 210.435 529 209.505 529 209.125C529 208.534 525.358 191.985 525.133 191.548C525.007 191.309 524.682 190.971 524.388 190.773C523.797 190.393 524.401 190.435 510.141 189.52C504.671 189.168 504.572 189.14 503.742 188.351C503.138 187.773 500.607 182.999 500.508 182.238C500.452 181.858 500.508 181.393 500.62 181.055C500.733 180.745 502.898 176.985 505.43 172.703C509.847 165.267 510.042 164.901 510.042 164.225C510.029 163.844 509.945 163.38 509.847 163.182C509.663 162.83 497.892 150.732 497.217 150.211C497.007 150.042 496.585 149.915 496.092 149.887L495.291 149.831L487.358 154.239C482.999 156.661 479.174 158.732 478.865 158.844C477.894 159.183 477.261 158.971 474.646 157.506C472.002 156.028 471.72 155.816 471.313 155.014C470.947 154.309 470.961 154.492 470.624 144.436C470.342 136.127 470.328 135.831 470.019 135.211C469.498 134.155 470.525 134.465 456.18 131.042C453.762 130.479 451.638 130 451.469 130C451.3 130.014 450.977 130.099 450.738 130.197ZM445.323 167.52C449.191 168.027 452.397 168.746 455.73 169.858C473.436 175.717 486.993 190.985 490.664 209.181C491.466 213.167 491.648 215.083 491.648 219.716C491.662 224.082 491.592 225.153 491.015 228.66C488.315 245.124 477.585 259.603 462.551 267.039C456.855 269.856 451.933 271.335 445.042 272.279C442.891 272.574 435.043 272.518 432.667 272.209C420.375 270.532 409.659 265.18 401.305 256.533C389.366 244.167 384.261 227.125 387.383 210.055C389.436 198.83 395.525 188.111 404.202 180.435C412.767 172.872 423.216 168.379 434.706 167.337C436.829 167.14 443.256 167.253 445.323 167.52Z" stroke="white" stroke-width="5" style="mix-blend-mode:overlay"/>
</g>
<path d="M490.853 193.057C500.733 187.677 508.578 179.986 514.107 170.3C516.754 165.672 519.416 157.31 520.138 151.416C521.02 144.511 520.229 134.732 518.287 127.445L517.326 124.014L513.826 127.34C511.887 129.201 503.658 137.029 495.517 144.739L480.745 158.797L472.547 156.597L464.374 154.345L457.052 146.196L449.691 138.061L448.358 133.462C445.944 125.214 446.096 124.423 450.222 123.345L452.806 122.686L470.312 107.048C479.946 98.4165 487.801 91.2422 487.746 91.0883C487.568 90.5879 479.611 88.8223 475.715 88.4741C464.336 87.4491 453.27 89.1315 439.567 94.0067C435.564 95.431 430.079 97.6861 427.456 98.9664C424.794 100.26 421.736 101.782 420.584 102.322L418.549 103.306L412.245 96.3127C408.743 92.4418 405.373 88.6975 404.739 88.0125L403.589 86.7305L402.107 91.4637C394.033 117.276 380.748 135.879 360.821 149.343C357.048 151.899 348.613 156.591 344.657 158.389L341.442 159.837L340.388 158.824C339.098 157.635 337.76 157.287 335.35 157.581C334.099 157.723 321.705 162.132 297.423 171.032C277.592 178.305 212.935 201.699 153.742 223.02C81.5907 248.994 45.1205 262.273 43.0994 263.296C36.9727 266.43 34.4535 270.318 32.9977 278.902C31.6359 287.018 28.8079 307.711 28.7784 309.456C28.7507 316.447 35.8816 321.499 44.3115 320.451C47.7664 320.045 80.5712 310.846 104.756 303.498C111.653 301.435 119.205 299.138 121.594 298.418C152.703 289.084 194.789 274.891 240.472 258.377C278.51 244.627 288.102 240.997 310.403 231.892C331.5 223.302 345.998 217.493 355.77 213.756C368.337 208.981 370.705 207.835 371.575 206.138C372.11 205.081 372.088 204.655 371.357 202.964L370.515 200.965L372.709 200.184C373.941 199.746 376.885 199.002 379.304 198.488C394.862 195.294 414.061 195.749 439.459 199.981C451.686 202.049 459.634 202.083 469.832 200.276C475.78 199.2 485.983 195.7 490.853 193.057ZM409.337 181.862C407.955 181.27 387.001 157.72 386.426 156.104C385.933 154.718 386.655 153.334 388.965 151.297L391.048 149.472L391.657 150.21C392.014 150.603 393.112 151.86 394.155 152.963C395.159 154.08 396.046 155.109 396.073 155.186C396.114 155.302 395.459 156.142 394.625 157.089C392.969 158.893 392.74 159.711 393.497 160.743C394.32 161.837 395.887 161.367 397.428 159.604L398.818 158.026L400.218 159.522C401.035 160.359 401.529 161.137 401.364 161.283C401.185 161.389 400.429 162.309 399.647 163.281C398.185 165.145 398.195 166.269 399.643 166.925C400.7 167.46 400.917 167.339 402.728 165.481L404.233 163.861L405.753 165.575C406.612 166.527 407.381 167.468 407.449 167.66C407.531 167.891 406.928 168.756 406.081 169.665C404.551 171.336 404.373 172.787 405.642 173.55C406.557 174.048 407.582 173.64 409.049 172.034C409.783 171.296 410.405 170.728 410.471 170.791C411.375 171.38 416.498 177.493 416.336 177.767C416.013 178.446 412.228 181.701 411.395 182.04C410.947 182.243 410.001 182.146 409.337 181.862ZM49.0715 306.529C48.0604 306.368 46.6788 305.776 45.9952 305.195C43.6946 303.238 43.5754 301.806 44.6784 291.744C45.9865 280.308 46.3696 279.434 50.8944 278.258C53.5555 277.571 56.5626 279.32 57.653 282.141C58.1708 283.474 58.0805 285.415 57.2198 292.746C56.6477 297.719 55.9387 302.308 55.6548 302.972C54.4946 305.683 51.9509 307.065 49.0715 306.529Z" fill="#4E4E4E"/>
<g filter="url(#filter1_d)">
<path fill-rule="evenodd" clip-rule="evenodd" d="M276.889 298.306C277.612 299.448 282.987 304.824 283.954 312.819C283.352 313.823 262.794 312.623 261.389 311.249C261.656 308.176 263.765 304.538 261.541 302.607C258.556 300.242 260.163 295.952 258.786 290.423C255.824 278.524 244.546 262.949 240.885 255.537C239.088 251.93 239.566 247.482 238.153 243.731C233.563 231.607 222.896 217.536 208.247 214.019C206.859 213.745 203.333 214.022 201.65 214.576C203.333 219.982 205.479 230.658 205.479 230.658C212.219 235.649 222.634 238.976 218.523 241.93C215.743 242.441 205.785 240.777 205.785 240.777C205.171 243.413 198.126 243.967 195.982 239.53C192.918 239.53 189.094 239.861 189.094 239.861L193.368 249.323C193.368 249.323 215.632 296.522 216.841 308.323C208.714 298.401 188.146 250.43 188.146 250.43L183.751 240.699C181.698 240.63 180.34 241.187 177.579 240.565C174.026 237.66 178.977 230.129 175.546 222.539L174.521 220.273C172.981 220.767 168.156 220.791 168.156 222.391C163.049 242.857 151.407 246.045 148.496 249.235C148.803 254.363 156.316 263.362 174.619 274.015C178.294 276.152 188.298 282.224 188.298 282.224C192.957 285.946 200.73 292.21 202.149 299.61C198.892 299.833 186.331 299.419 179.637 297.838C179.287 295.397 179.131 293.735 179.437 291.101C176.681 284.724 172.397 288.475 166.264 285.279C161.232 282.653 161.67 278.902 156.4 273.969C147.891 266.003 136.397 258.383 128.737 253.809C129.963 250.065 131.6 245.216 131.536 240.07C131.438 236.085 129.706 233.062 128.066 229.835C122.457 238.281 103.63 244.692 96.7227 249.372C83.4549 258.269 76.8278 286.673 83.7035 300.568C84.9109 303.032 88.9119 308.014 89.5071 315.438C87.7451 316.625 75.1639 315.6 74.2051 315.36C72.8117 314.844 64.7083 313.56 64.7083 313.56C65.1987 313.402 63.1627 305.58 68.2307 295.675L60.266 293.456C64.798 285.775 70.544 271.374 72.5191 259.077C74.944 243.991 74.2761 233.367 75.6915 230.314C77.3115 226.814 86.8302 226.466 88.7563 219.982C90.777 213.194 84.3038 206.534 84.2345 192.59C84.2074 186.819 84.3157 181.305 86.306 175.619C84.3157 170.63 79.2054 170.815 77.2455 171.427C68.6704 173.985 72.3602 187.11 72.4954 193.565C72.8269 209.309 66.6986 220.814 61.2485 228.906V216.811C59.5016 223.309 49.9406 237.279 49.9406 237.279L48.9142 229.835C45.2548 235.508 39.2804 241.331 36.218 247.017C34.3799 240.222 34.0738 229.548 37.1379 219.29C37.1379 219.29 34.6859 220.814 33 221.368C34.992 215.824 36.7371 207.499 37.1227 201.985C38.2912 185.327 33.9436 171.34 45.4747 158.72C57.579 145.476 75.5832 145.122 93.114 164.709C101.473 157.738 113.42 152.331 126.009 149.825C126.009 149.825 116.758 136.684 116.758 134.008C125.213 131.535 134.234 131.218 134.234 131.218L132.985 128.327C129.74 123.502 116.888 118.369 110.269 121.274C108.057 124.189 105.433 129.125 102.085 130.566C100.399 129.041 97.9469 128.208 93.9814 127.789C93.9814 127.789 92.7385 129.872 90.5943 131.535C87.2258 127.377 81.3393 129.832 77.7273 128.07L74.9709 132.368C72.2298 130.418 62.87 127.239 53.0248 124.706C54.4453 121 57.6633 117.258 60.2658 114.346C60.2658 113.037 54.5992 108.522 49.0848 108.384L53.0248 98.6555C48.1665 96.7394 46.1729 90.2229 40.6584 90.3637C46.3284 85.0945 55.9267 76.8883 59.192 73.5351C64.402 68.1817 76.9122 60.0858 83.1926 58.0058C84.2343 47.8024 83.1927 45.2589 83.0185 36.563C82.9441 32.6084 84.7687 32.0376 88.0678 30.2669L83.5478 18.9111C82.2474 16.0278 87.5724 15.1524 88.3587 16.8909L93.0682 28.1304C93.0682 28.1304 97.4885 27.5626 98.9428 28.1855C101.699 32.6926 103.999 35.7427 104.917 39.6239C105.299 40.6615 104.229 43.2969 102.005 46.4159L105.406 54.1415C118.425 56.3591 132.565 58.7558 147.118 65.5463C148.273 62.7563 149.653 60.9489 149.653 58.6517L140.753 57.1687L136.291 58.6502L133.078 52.9815L126.009 46.5583C126.009 46.5583 133.631 39.8167 137.16 37.4063C139.646 35.7075 149.619 31.4438 149.619 31.4438C165.618 18.8866 191.8 39.1434 188.073 55.7454C186.533 62.5772 179.43 61.1799 173.906 63.4771C171.521 66.7093 168.513 69.9875 164.888 73.3101C168.41 75.8062 173.292 80.8214 174.843 84.1241C176.965 88.648 178.436 98.6571 178.436 98.6571C180.685 98.452 185.107 97.295 187.557 95.7692C187.557 95.7692 192.827 97.7251 191.8 97.7251C192.794 95.6621 196.136 91.7487 198.586 89.2541C195.728 88.642 189.071 88.4216 190.77 88.4216C192.766 85.0944 199.949 82.9304 201.802 80.797L199.044 79.6874C202.415 78.1631 207.471 75.5277 207.471 75.5277C205.736 75.0334 203.641 74.4197 202.078 72.6077C207.283 70.3977 212.424 65.1637 218.523 65.1637C217.016 63.9118 214.669 63.7465 213.389 62.3722C220.951 59.3098 226.491 58.6517 233.945 58.6517C234.65 57.0509 229.987 52.3785 228.967 50.0446C233.969 48.3565 244.692 48.0795 249.236 48.8248C253.184 49.4722 256.98 50.5618 260.073 52.7549C263.841 55.4286 266.903 63.1909 271.919 63.4419C274.044 63.5506 277.122 62.3722 277.122 62.3722C275.996 64.8729 271.981 67.9842 271.981 70.7436C275.964 72.0812 292.542 74.6125 292.542 77.2586C286.92 78.4202 283.512 80.9776 280.205 80.9776L286.051 92.0257C284.825 92.3043 283.599 92.8583 283.599 92.8583C285.893 100.09 291.91 115.327 295.089 128.07C295.363 131.973 294.934 133.617 292.204 136.001C290.258 137.697 264.784 150.116 264.784 141.452C261.475 143.981 258.617 148.024 258.617 150.756C263.18 160.321 269.604 166.893 269.795 177.734C269.862 182.503 269.2 186.018 267.869 190.761C279.21 191.69 306.049 178.496 311.632 188.792C315.615 196.138 309.987 202.057 306.375 213.213C302.748 224.419 300.083 234.824 294.934 242.303C291.352 245.636 288.193 247.155 284.213 248.957C281.319 249.449 276.534 249.046 270.133 248.258C271.173 241.42 275.634 232.736 277.778 228.577C277.778 228.577 285.131 231.768 286.663 230.24C286.663 224.836 288.958 223.156 292.483 222.755C293.403 217.904 296.332 209.022 295.642 205.634C294.184 198.459 265.065 211.11 249.594 214.299C250.514 224.418 254.451 236.781 259.62 246.065C261.847 250.065 259.622 257.158 261.389 262.681L269.506 285.276C271.598 289.87 276.289 298.442 276.889 298.306L276.889 298.306ZM245.153 113.098C245.537 124.553 247.604 129.871 248.98 133.475C248.98 133.475 260.623 137.358 265.812 138.662C266.874 137.207 268.511 135.869 269.925 135.869C264.759 130.289 267.916 127.931 265.523 125.99C259.525 121.122 250.336 121.83 245.153 113.098V113.098ZM176.222 112.404C175.676 114.933 173.924 121.83 172.546 127.516L183.421 122.109C184.339 119.198 185.107 115.453 185.107 115.453C182.381 115.908 179.418 114.893 176.222 112.404V112.404Z" fill="#FECB37"/>
<path fill-rule="evenodd" clip-rule="evenodd" d="M276.889 298.306C277.612 299.448 282.987 304.824 283.954 312.819C283.352 313.823 262.794 312.623 261.389 311.249C261.656 308.176 263.765 304.538 261.541 302.607C258.556 300.242 260.163 295.952 258.786 290.423C255.824 278.524 244.546 262.949 240.885 255.537C239.088 251.93 239.566 247.482 238.153 243.731C233.563 231.607 222.896 217.536 208.247 214.019C206.859 213.745 203.333 214.022 201.65 214.576C203.333 219.982 205.479 230.658 205.479 230.658C212.219 235.649 222.634 238.976 218.523 241.93C215.743 242.441 205.785 240.777 205.785 240.777C205.171 243.413 198.126 243.967 195.982 239.53C192.918 239.53 189.094 239.861 189.094 239.861L193.368 249.323C193.368 249.323 215.632 296.522 216.841 308.323C208.714 298.401 188.146 250.43 188.146 250.43L183.751 240.699C181.698 240.63 180.34 241.187 177.579 240.565C174.026 237.66 178.977 230.129 175.546 222.539L174.521 220.273C172.981 220.767 168.156 220.791 168.156 222.391C163.049 242.857 151.407 246.045 148.496 249.235C148.803 254.363 156.316 263.362 174.619 274.015C178.294 276.152 188.298 282.224 188.298 282.224C192.957 285.946 200.73 292.21 202.149 299.61C198.892 299.833 186.331 299.419 179.637 297.838C179.287 295.397 179.131 293.735 179.437 291.101C176.681 284.724 172.397 288.475 166.264 285.279C161.232 282.653 161.67 278.902 156.4 273.969C147.891 266.003 136.397 258.383 128.737 253.809C129.963 250.065 131.6 245.216 131.536 240.07C131.438 236.085 129.706 233.062 128.066 229.835C122.457 238.281 103.63 244.692 96.7227 249.372C83.4549 258.269 76.8278 286.673 83.7035 300.568C84.9109 303.032 88.9119 308.014 89.5071 315.438C87.7451 316.625 75.1639 315.6 74.2051 315.36C72.8117 314.844 64.7083 313.56 64.7083 313.56C65.1987 313.402 63.1627 305.58 68.2307 295.675L60.266 293.456C64.798 285.775 70.544 271.374 72.5191 259.077C74.944 243.991 74.2761 233.367 75.6915 230.314C77.3115 226.814 86.8302 226.466 88.7563 219.982C90.777 213.194 84.3038 206.534 84.2345 192.59C84.2074 186.819 84.3157 181.305 86.306 175.619C84.3157 170.63 79.2054 170.815 77.2455 171.427C68.6704 173.985 72.3602 187.11 72.4954 193.565C72.8269 209.309 66.6986 220.814 61.2485 228.906V216.811C59.5016 223.309 49.9406 237.279 49.9406 237.279L48.9142 229.835C45.2548 235.508 39.2804 241.331 36.218 247.017C34.3799 240.222 34.0738 229.548 37.1379 219.29C37.1379 219.29 34.6859 220.814 33 221.368C34.992 215.824 36.7371 207.499 37.1227 201.985C38.2912 185.327 33.9436 171.34 45.4747 158.72C57.579 145.476 75.5832 145.122 93.114 164.709C101.473 157.738 113.42 152.331 126.009 149.825C126.009 149.825 116.758 136.684 116.758 134.008C125.213 131.535 134.234 131.218 134.234 131.218L132.985 128.327C129.74 123.502 116.888 118.369 110.269 121.274C108.057 124.189 105.433 129.125 102.085 130.566C100.399 129.041 97.9469 128.208 93.9814 127.789C93.9814 127.789 92.7385 129.872 90.5943 131.535C87.2258 127.377 81.3393 129.832 77.7273 128.07L74.9709 132.368C72.2298 130.418 62.87 127.239 53.0248 124.706C54.4453 121 57.6633 117.258 60.2658 114.346C60.2658 113.037 54.5992 108.522 49.0848 108.384L53.0248 98.6555C48.1665 96.7394 46.1729 90.2229 40.6584 90.3637C46.3284 85.0945 55.9267 76.8883 59.192 73.5351C64.402 68.1817 76.9122 60.0858 83.1926 58.0058C84.2343 47.8024 83.1927 45.2589 83.0185 36.563C82.9441 32.6084 84.7687 32.0376 88.0678 30.2669L83.5478 18.9111C82.2474 16.0278 87.5724 15.1524 88.3587 16.8909L93.0682 28.1304C93.0682 28.1304 97.4885 27.5626 98.9428 28.1855C101.699 32.6926 103.999 35.7427 104.917 39.6239C105.299 40.6615 104.229 43.2969 102.005 46.4159L105.406 54.1415C118.425 56.3591 132.565 58.7558 147.118 65.5463C148.273 62.7563 149.653 60.9489 149.653 58.6517L140.753 57.1687L136.291 58.6502L133.078 52.9815L126.009 46.5583C126.009 46.5583 133.631 39.8167 137.16 37.4063C139.646 35.7075 149.619 31.4438 149.619 31.4438C165.618 18.8866 191.8 39.1434 188.073 55.7454C186.533 62.5772 179.43 61.1799 173.906 63.4771C171.521 66.7093 168.513 69.9875 164.888 73.3101C168.41 75.8062 173.292 80.8214 174.843 84.1241C176.965 88.648 178.436 98.6571 178.436 98.6571C180.685 98.452 185.107 97.295 187.557 95.7692C187.557 95.7692 192.827 97.7251 191.8 97.7251C192.794 95.6621 196.136 91.7487 198.586 89.2541C195.728 88.642 189.071 88.4216 190.77 88.4216C192.766 85.0944 199.949 82.9304 201.802 80.797L199.044 79.6874C202.415 78.1631 207.471 75.5277 207.471 75.5277C205.736 75.0334 203.641 74.4197 202.078 72.6077C207.283 70.3977 212.424 65.1637 218.523 65.1637C217.016 63.9118 214.669 63.7465 213.389 62.3722C220.951 59.3098 226.491 58.6517 233.945 58.6517C234.65 57.0509 229.987 52.3785 228.967 50.0446C233.969 48.3565 244.692 48.0795 249.236 48.8248C253.184 49.4722 256.98 50.5618 260.073 52.7549C263.841 55.4286 266.903 63.1909 271.919 63.4419C274.044 63.5506 277.122 62.3722 277.122 62.3722C275.996 64.8729 271.981 67.9842 271.981 70.7436C275.964 72.0812 292.542 74.6125 292.542 77.2586C286.92 78.4202 283.512 80.9776 280.205 80.9776L286.051 92.0257C284.825 92.3043 283.599 92.8583 283.599 92.8583C285.893 100.09 291.91 115.327 295.089 128.07C295.363 131.973 294.934 133.617 292.204 136.001C290.258 137.697 264.784 150.116 264.784 141.452C261.475 143.981 258.617 148.024 258.617 150.756C263.18 160.321 269.604 166.893 269.795 177.734C269.862 182.503 269.2 186.018 267.869 190.761C279.21 191.69 306.049 178.496 311.632 188.792C315.615 196.138 309.987 202.057 306.375 213.213C302.748 224.419 300.083 234.824 294.934 242.303C291.352 245.636 288.193 247.155 284.213 248.957C281.319 249.449 276.534 249.046 270.133 248.258C271.173 241.42 275.634 232.736 277.778 228.577C277.778 228.577 285.131 231.768 286.663 230.24C286.663 224.836 288.958 223.156 292.483 222.755C293.403 217.904 296.332 209.022 295.642 205.634C294.184 198.459 265.065 211.11 249.594 214.299C250.514 224.418 254.451 236.781 259.62 246.065C261.847 250.065 259.622 257.158 261.389 262.681L269.506 285.276C271.598 289.87 276.289 298.442 276.889 298.306L276.889 298.306ZM245.153 113.098C245.537 124.553 247.604 129.871 248.98 133.475C248.98 133.475 260.623 137.358 265.812 138.662C266.874 137.207 268.511 135.869 269.925 135.869C264.759 130.289 267.916 127.931 265.523 125.99C259.525 121.122 250.336 121.83 245.153 113.098V113.098ZM176.222 112.404C175.676 114.933 173.924 121.83 172.546 127.516L183.421 122.109C184.339 119.198 185.107 115.453 185.107 115.453C182.381 115.908 179.418 114.893 176.222 112.404V112.404Z" stroke="white" stroke-width="5"/>
</g>
<defs>
<filter id="filter0_d" x="342.5" y="127.5" width="193" height="194" filterUnits="userSpaceOnUse" color-interpolation-filters="sRGB">
<feFlood flood-opacity="0" result="BackgroundImageFix"/>
<feColorMatrix in="SourceAlpha" type="matrix" values="0 0 0 0 0 0 0 0 0 0 0 0 0 0 0 0 0 0 127 0"/>
<feOffset dy="5"/>
<feGaussianBlur stdDeviation="2"/>
<feColorMatrix type="matrix" values="0 0 0 0 0 0 0 0 0 0 0 0 0 0 0 0 0 0 0.25 0"/>
<feBlend mode="normal" in2="BackgroundImageFix" result="effect1_dropShadow"/>
<feBlend mode="normal" in="SourceGraphic" in2="effect1_dropShadow" result="shape"/>
</filter>
<filter id="filter1_d" x="11.916" y="0.5" width="320.584" height="339" filterUnits="userSpaceOnUse" color-interpolation-filters="sRGB">
<feFlood flood-opacity="0" result="BackgroundImageFix"/>
<feColorMatrix in="SourceAlpha" type="matrix" values="0 0 0 0 0 0 0 0 0 0 0 0 0 0 0 0 0 0 127 0"/>
<feOffset dy="4"/>
<feGaussianBlur stdDeviation="8.5"/>
<feColorMatrix type="matrix" values="0 0 0 0 0 0 0 0 0 0 0 0 0 0 0 0 0 0 0.43 0"/>
<feBlend mode="normal" in2="BackgroundImageFix" result="effect1_dropShadow"/>
<feBlend mode="normal" in="SourceGraphic" in2="effect1_dropShadow" result="shape"/>
</filter>
</defs>
</svg>
